<svg xmlns="http://www.w3.org/2000/svg" xmlns:xlink="http://www.w3.org/1999/xlink" viewBox="0 0 100 100"><symbol id="a" viewBox="-20.6 -20.6 41.2 41.2"><path fill="#010101" d="M0-20.6c-11.4 0-20.6 9.3-20.6 20.6S-11.4 20.6 0 20.6 20.6 11.4 20.6 0 11.3-20.6 0-20.6zM.4 3.1C-8.7.4-17.3.6-17.6.6V0c0-4.5 1.7-8.6 4.5-11.7C-8.3-3.2 1.2-.1 1.2-.1c.2.1.5.1.7.2l-1.5 3zm-7.9 12.8c-4.9-2.3-8.5-6.8-9.7-12.3.5 0 7.8-.1 16.2 2.1-3.1 5.5-6.3 9.9-6.5 10.2zM3.1-2.8H3s-10.4-3.6-13.8-11c-.2.1-.4.3-.4.3 3.1-2.5 6.9-4 11.2-4 2.4 0 4.7.5 6.9 1.4-.4 1.5-1.4 6.8-3.8 13.3zM-4.3 17s0 .1 0 0c0 .1 0 .1 0 0zm4.3.6c-1.4 0-2.8-.2-4.2-.5.3-.3 3.6-4.7 6.6-10.2 6.6 2.5 9.1 6.3 9.2 6.3-3.1 2.7-7.2 4.4-11.6 4.4zm13.5-6.4c-.1-.1-2.9-4.1-9.8-7 .4-.8.8-1.7 1.2-2.5.1-.3.2-.6.4-.9 6.1.8 12-.5 12.2-.6 0 4.2-1.5 8-4 11zM6.4-2c2.3-6.3 3.2-11.5 3.4-12.6 3.9 2.7 6.7 6.9 7.5 11.8-.4.1-5.3 1.7-10.9.8z"/></symbol><use xlink:href="#a" width="41.2" height="41.2" x="-20.6" y="-20.6" transform="matrix(1 0 0 -1 50.4 49.8)" overflow="visible"/></svg>