<?xml version="1.0" encoding="utf-8"?>
<!-- Generator: Adobe Illustrator 19.2.0, SVG Export Plug-In . SVG Version: 6.00 Build 0)  -->
<svg version="1.1" id="Layer_1" xmlns="http://www.w3.org/2000/svg" xmlns:xlink="http://www.w3.org/1999/xlink" x="0px" y="0px"
	 viewBox="0 0 54.8 44.6" style="enable-background:new 0 0 54.8 44.6;" xml:space="preserve">
<path d="M44.5,15.2c0,0.4,0,0.8,0,1.1c0,11.4-8.7,24.6-24.6,24.6c-4.9,0-9.5-1.4-13.3-3.9c0.7,0.1,1.4,0.1,2.1,0.1
	c4,0,7.8-1.4,10.7-3.7c-3.8-0.1-7-2.6-8.1-6c0.5,0.1,1.1,0.1,1.6,0.1c0.8,0,1.6-0.1,2.3-0.3c-4-0.8-6.9-4.3-6.9-8.5c0,0,0-0.1,0-0.1
	c1.2,0.6,2.5,1,3.9,1.1c-2.3-1.6-3.9-4.2-3.9-7.2c0-1.6,0.4-3.1,1.2-4.4c4.3,5.2,10.7,8.7,17.8,9.1c-0.1-0.6-0.2-1.3-0.2-2
	c0-4.8,3.9-8.6,8.6-8.6c2.5,0,4.7,1,6.3,2.7c2-0.4,3.8-1.1,5.5-2.1c-0.6,2-2,3.7-3.8,4.8c1.7-0.2,3.4-0.7,5-1.3
	C47.7,12.4,46.2,14,44.5,15.2z"/>
</svg>
