<?xml version="1.0" encoding="utf-8"?>
<!-- Generator: Adobe Illustrator 19.2.0, SVG Export Plug-In . SVG Version: 6.00 Build 0)  -->
<svg version="1.1" id="Layer_1" xmlns="http://www.w3.org/2000/svg" xmlns:xlink="http://www.w3.org/1999/xlink" x="0px" y="0px"
	 viewBox="0 0 54.8 44.6" style="enable-background:new 0 0 54.8 44.6;" xml:space="preserve">
<g>
	<path d="M13.1,12.3L13.1,12.3c-2.9,0-4.7-2-4.7-4.4c0-2.5,1.9-4.4,4.8-4.4c2.9,0,4.7,1.9,4.7,4.4C18,10.3,16.1,12.3,13.1,12.3z
		 M17.4,41.4H8.9V15.8h8.5V41.4z M48,41.4h-8.5V27.7c0-3.4-1.2-5.8-4.3-5.8c-2.3,0-3.7,1.6-4.4,3.1c-0.2,0.6-0.3,1.3-0.3,2.1v14.3
		h-8.5c0.1-23.2,0-25.6,0-25.6h8.5v3.7h-0.1c1.1-1.8,3.1-4.3,7.7-4.3c5.6,0,9.8,3.7,9.8,11.5V41.4z"/>
</g>
</svg>
