<?xml version="1.0" encoding="utf-8"?>
<!-- Generator: Adobe Illustrator 19.2.0, SVG Export Plug-In . SVG Version: 6.00 Build 0)  -->
<svg version="1.1" id="Layer_1" xmlns="http://www.w3.org/2000/svg" xmlns:xlink="http://www.w3.org/1999/xlink" x="0px" y="0px"
	 viewBox="0 0 54.8 44.6" style="enable-background:new 0 0 54.8 44.6;" xml:space="preserve">
<path d="M28.4,43.4C17,43.4,7.8,34.1,7.8,22.8S17,2.2,28.4,2.2s20.6,9.2,20.6,20.6S39.7,43.4,28.4,43.4z M28.8,19.7
	c-9.1,2.7-17.7,2.5-18,2.5c0,0.2,0,0.4,0,0.6c0,4.5,1.7,8.6,4.5,11.7c4.8-8.5,14.3-11.6,14.3-11.6c0.2-0.1,0.5-0.1,0.7-0.2
	C29.8,21.7,29.3,20.7,28.8,19.7z M20.9,6.9c-4.9,2.3-8.5,6.8-9.7,12.3c0.5,0,7.8,0.1,16.2-2.1C24.3,11.6,21.1,7.2,20.9,6.9z
	 M31.5,25.6c0,0-0.1,0-0.1,0c0,0-10.4,3.6-13.8,11c-0.2-0.1-0.4-0.3-0.4-0.3c3.1,2.5,6.9,4,11.2,4c2.4,0,4.7-0.5,6.9-1.4
	C34.9,37.4,33.9,32.1,31.5,25.6z M24.1,5.8C24.1,5.8,24.1,5.7,24.1,5.8C24.1,5.7,24.1,5.7,24.1,5.8z M28.4,5.2
	c-1.4,0-2.8,0.2-4.2,0.5c0.3,0.3,3.6,4.7,6.6,10.2c6.6-2.5,9.1-6.3,9.2-6.3C36.9,6.9,32.8,5.2,28.4,5.2z M41.9,11.6
	c-0.1,0.1-2.9,4.1-9.8,7c0.4,0.8,0.8,1.7,1.2,2.5c0.1,0.3,0.2,0.6,0.4,0.9c6.1-0.8,12,0.5,12.2,0.6C45.9,18.4,44.4,14.6,41.9,11.6z
	 M34.8,24.8c2.3,6.3,3.2,11.5,3.4,12.6c3.9-2.7,6.7-6.9,7.5-11.8C45.3,25.5,40.4,23.9,34.8,24.8z"/>
</svg>
