<svg xmlns="http://www.w3.org/2000/svg" xmlns:xlink="http://www.w3.org/1999/xlink" viewBox="-719.4 720.7 54.8 44.6"><symbol id="a" viewBox="-26.8 -16.8 53.5 33.5"><path d="M-11.3 16.8c5.6 0 10.5-1.6 10.5-8.1 0-3.3-1.5-5.5-4.5-6.9 4-1.1 6-4.2 6-8.3 0-6.7-5.6-9.6-11.6-9.6h-15.9v32.9h15.5zm-.9-13.3c2.6 0 4.4 1.1 4.4 3.9 0 3-2.3 3.8-5 3.8h-6.8V3.5h7.4zm.4-14c2.9 0 5.4 1 5.4 4.4s-2 4.7-5.2 4.7h-8v-9.1h7.8zm32.3 1.8h5.8c-1.8-5.5-5.5-8-11.1-8C7.7-16.7 3-11.6 3-4.2 2.9 2.9 7.8 8.4 15.1 8.4c7.5 0 11.6-5.9 11.6-12.9 0-.4 0-.8-.1-1.2H9.4c0-3.8 2-6.1 5.8-6.1 2.1 0 4.6 1.1 5.3 3.1zM8.1 14.6v-3.2h13.3v3.2H8.1zM9.4-1.6H20c-.3 3.2-1.9 5.1-5.2 5.1-3.1 0-5.2-2-5.4-5.1z"/></symbol><use xlink:href="#a" width="53.5" height="33.5" x="-26.8" y="-16.8" transform="matrix(1 0 0 -1 -692 743)" overflow="visible"/></svg>