<?xml version="1.0" encoding="utf-8"?>
<!-- Generator: Adobe Illustrator 19.2.0, SVG Export Plug-In . SVG Version: 6.00 Build 0)  -->
<svg version="1.1" id="Layer_1" xmlns="http://www.w3.org/2000/svg" xmlns:xlink="http://www.w3.org/1999/xlink" x="0px" y="0px"
	 viewBox="0 0 54.8 44.6" style="enable-background:new 0 0 54.8 44.6;" xml:space="preserve">
<path d="M48.5,37.6c0,2.9-2.4,5.3-5.3,5.3H12.7c-2.9,0-5.3-2.4-5.3-5.3V7c0-2.9,2.4-5.3,5.3-5.3h30.6c2.9,0,5.3,2.4,5.3,5.3V37.6z
	 M43.9,19.1h-3.6c0.3,1.1,0.5,2.3,0.5,3.5C40.8,29.5,35.1,35,28,35c-7,0-12.8-5.5-12.8-12.4c0-1.2,0.2-2.4,0.5-3.5H12v17.4
	c0,0.9,0.7,1.6,1.6,1.6h28.6c0.9,0,1.6-0.7,1.6-1.6V19.1z M28,14.2c-4.6,0-8.2,3.6-8.2,8c0,4.4,3.7,8,8.2,8c4.6,0,8.3-3.6,8.3-8
	C36.3,17.8,32.6,14.2,28,14.2z M43.9,8.1c0-1-0.8-1.8-1.8-1.8h-4.7c-1,0-1.8,0.8-1.8,1.8v4.4c0,1,0.8,1.8,1.8,1.8H42
	c1,0,1.8-0.8,1.8-1.8V8.1z"/>
</svg>
