<svg xmlns="http://www.w3.org/2000/svg" xmlns:xlink="http://www.w3.org/1999/xlink" viewBox="0 0 100 100"><symbol id="a" viewBox="-20.6 -20.6 41.2 41.2"><path fill="#010101" d="M20.5-15.3c0-2.9-2.4-5.3-5.3-5.3h-30.5c-2.9 0-5.3 2.4-5.3 5.3v30.6c0 2.9 2.4 5.3 5.3 5.3h30.6c2.9 0 5.3-2.4 5.3-5.3l-.1-30.6zM15.9 3.2h-3.6c.3-1.1.5-2.3.5-3.5 0-6.9-5.7-12.4-12.8-12.4-7 0-12.8 5.5-12.8 12.4 0 1.2.2 2.4.5 3.5H-16v-17.4c0-.9.7-1.6 1.6-1.6h28.6c.9 0 1.6.7 1.6 1.6V3.2h.1zM0 8.1c-4.6 0-8.2-3.6-8.2-8s3.7-8 8.2-8c4.6 0 8.3 3.6 8.3 8s-3.7 8-8.3 8zm15.9 6.1c0 1-.8 1.8-1.8 1.8H9.4c-1 0-1.8-.8-1.8-1.8V9.8c0-1 .8-1.8 1.8-1.8H14c1 0 1.8.8 1.8 1.8v4.4h.1z"/></symbol><use xlink:href="#a" width="41.2" height="41.2" x="-20.6" y="-20.6" transform="matrix(1 0 0 -1 50 50)" overflow="visible"/></svg>