<svg xmlns="http://www.w3.org/2000/svg" xmlns:xlink="http://www.w3.org/1999/xlink" viewBox="0 0 100 100"><symbol id="a" viewBox="-19.8 -19 39.6 37.9"><path fill="#010101" d="M-15.1 10.2c-2.9 0-4.7 2-4.7 4.4 0 2.5 1.9 4.4 4.8 4.4s4.7-1.9 4.7-4.4c.1-2.4-1.8-4.4-4.8-4.4zm4.3-29.1h-8.5V6.7h8.5v-25.6zm30.6 0h-8.5v13.7C11.3-1.8 10.1.6 7 .6 4.7.6 3.3-1 2.6-2.5c-.2-.6-.3-1.3-.3-2.1v-14.3h-8.5c.1 23.2 0 25.6 0 25.6h8.5V3h-.1c1.1 1.8 3.1 4.3 7.7 4.3 5.6 0 9.8-3.7 9.8-11.5l.1-14.7z"/></symbol><use xlink:href="#a" width="39.6" height="37.9" x="-19.8" y="-19" transform="matrix(1 0 0 -1 50 50)" overflow="visible"/></svg>