<svg xmlns="http://www.w3.org/2000/svg" xmlns:xlink="http://www.w3.org/1999/xlink" viewBox="0 0 100 100"><symbol id="a" viewBox="-20.6 -20.6 41.1 41.2"><path fill="#010101" d="M20.6 0c0-11.4-9.2-20.6-20.6-20.6S-20.5-11.3-20.5 0-11.3 20.6 0 20.6 20.6 11.4 20.6 0zM6.8 6.1c.1 0 .3.5.3.6.2.2.4.3.6.4.5.2.9.2 1.4.3s1 .1 1.4-.3c-.1.1.5.7.6.7.2.1.6.1.8.3.1.1.1.6.1.6-.5-.1-.6.4-.6.8l-.2-.2c0 .4-.5.1-.7.2-.6.2-.5.6-.7 1-.1.2-.4.3-.5.6-.1.2-.2.5-.4.5s-.5-.6-.5-.5c-.2.1-.3-.1-.5-.2-.3-.1-.4-.1-.6-.1.5.2-.2.4-.5.4.4.1.2.5 0 .7h.1c-.1.2-.8.5-1 .6-.2.2-1.5.4-1.8.3-.3-.2.1-.7.1-1s-.3-.4-.3-.7c0-.5.9-.4.6-1-.1-.4-.6-.5-.9-.7-.2-.3 0-.8.2-.9.2-.2-.4-.4-.5-.5-.5-.2-.8.5-.9.9-.1.3-.1.6-.4.8-.2.1-.7.1-.8 0-.2.4-.7.6-1.1.7-.5.2-1 .2-1.6.1.2 0-.1.9-.5.7.1.3.1.6.1.8l.3.6c.1.1.6.7.5.8.5-.1 1-.1 1.3.3.2.2.3.6.6.9.6.2 1-.3 1.4-.3.5 0 .5.6.2.8.3 0 .1.6-.1.7s-1.2-.2-.7-.3c-.1.1-.8-1.3-1.1-.6-.1.1-.2.7-.4.7s-.3-.2-.4-.4c.1.3-.8.6-1 .6.4.3.1.6-.2.7-.2.1-.9.2-1.1 0-.5-.6.5-.7.8-.9.1-.1.4-.2.2-.4-.2-.1-.6-.2-.7-.3-.2-.2.2-.5-.1-.8-.2.2-.2.6-.4.9.2-.3-1-.1-.9-.1-.4 0-1-.3-1.3.1-.1.1-.1.7.1.6-.2.2-.4.4-.6.5-.9-.3-1.7-.7-2.5-1.1h.3l.6.3c.3.1.8.4 1.1.2 0 .1.1.1.1.1.2-.2.4-.4.5-.7-.2.1-.6.1-.8 0 0 .2-.3.2-.4-.1.1-.1.2-.3.1-.5-.3.2-.6.6-1.1.7h-.6c-2.6-1.4-4.7-3.5-6.3-5.9.1-.1.2-.2.3-.2.3-.1 0-.9.5-.5.2-.1.2-.3.1-.5 0 0 1.1-.7 1.2-.7.2-.2.5-.3.6-.6.1-.2-.1-.4-.3-.5 0 .1-.4.5-.5.3-.1-.1 0-.9.3-.8-.4 0-.2-1.7-.3-2h.1c-.1-.3.2-1.6.7-1.4-.3-.1.6-1.3.8-1.4.3-.2.8-.4 1-.7.3-.4.3-.9.6-1.2-.1-.3.6-.7.5-1.2-.1 0-.1 0-.1-.1.1-.4.6-.4.8-.7.1-.2 0-.7.3-.6.1.6-.3 1.2-.6 1.7-.2.3-.3.5-.5.8-.1.2-.2.5-.3.8.1 0 .7-.2.6-.3-.2-.5.9-1.5 1.2-1.8.1-.1.7-.9.4-.9.3 0 .8-.5 1-.8.2-.4.2-.9.3-1.3.2-.5.9-.8 1.3-1s.7-.5 1.1-.6c.6-.2.7 0 1.2.1.7.1.8-.7 1.3-1 .3-.2 1.1-.5 1.5-.3-.2-.1.6-1.2.6-1.2.2-.3.7-.5 1-.8.1.1.2.1.2.2-.1-.3.4-.9.7-.8.3.1.4.6.4.9-.5-.3-1-.1-1.3.5-.1.1-.5.9-.1.9.5 0 .2.4.1.8s-.4.6-.6.9c-.2-.3-.7-.2-.9 0 0-.1-.1-.2-.1-.3H.2c.1.3.1.7.2 1.1.1.5 1 1.4-.1 1.4-.4 0-.6-.2-.7-.5s-.1-.6-.5-.8c-.2-.1-1-.1-1.3.1-.5.3-.9 1.2-.9 1.8 0 .7.3 1.4 0 2 .2.1.3.4.5.5s.3-.1.4.2l-.2.2c.4-.2 1.2.3 1.5 0 .2-.2.5-.2.6.1 0 .1-.2.4-.1.6.1-.5.4-.5.8-.2.2-.2.6-.1.9-.3.3-.2.3-.5.7-.1.2-.3.2-.3.3-.6.1-.3.2-1 .5-1.2.6-.3.4.6.4.9 0 0 0 .9-.1.9-.9.2-.5.9-.1 1.3.1.1.7.3 1 .5.2.2.5.6.4.9.1 0 .2.1.3.2-.1 0-.4.3-.5.3.2.1.2.3.1.4.3.2.1.5.4.6.3-.4.9.1.6.4.3.4.9.2 1 .5.4-.1.1.4.3.7.2.2.5.2.8.4 0 0 .7.4.5.4.5-.1 1.4.4.7.8.1.2-.2.3-.5.4.2.1.4-.1.6.1.3.2.1.3-.2.4-.4.1-.9-.1-1.2-.3-.1-.4-.3-.7-.5-.8zm5.6-17.9c-.2.2-.5.1-.7.2-.2.1-.4.2-.6.2.1.5-.5.7-.9 1-.3.3-.6.6-1.1.5-.1 0-.6-.2-.5-.3-.3.3-.5.5-1 .6-.4.1-.7.7-1.2.2-.2-.2-.1-.5-.2-.7-.3.3.3.6.1 1-.3.4-.9-.2-1.2-.4-.2-.1-.3-.2-.5-.3l-.3-.6c-.1.2-.5.2-.6.3.1-.6.1-1.3.2-2 .1-.4 0-1-.3-1.3s-.7-.6-.8-1.1c-.1-.3 0-.6.3-.7 0-.4-.4-.7-.4-1.1 0 0 0-.3.1-.4 3.9.5 7.1 2.3 9.6 4.9z"/></symbol><use xlink:href="#a" width="41.1" height="41.2" x="-20.6" y="-20.6" transform="matrix(1 0 0 -1 50 50)" overflow="visible"/></svg>