<svg xmlns="http://www.w3.org/2000/svg" xmlns:xlink="http://www.w3.org/1999/xlink" viewBox="0 0 100 100"><symbol id="a" viewBox="-21 -17.2 42.1 34.3"><path fill="#010101" d="M16.9 8.6V7.5c0-11.4-8.7-24.6-24.6-24.6-4.9 0-9.5 1.4-13.3 3.9.7-.1 1.4-.1 2.1-.1 4 0 7.8 1.4 10.7 3.7-3.8.1-7 2.6-8.1 6 .5-.1 1.1-.1 1.6-.1.8 0 1.6.1 2.3.3-4 .8-6.9 4.3-6.9 8.5v.1c1.2-.6 2.5-1 3.9-1.1-2.3 1.6-3.9 4.2-3.9 7.2 0 1.6.4 3.1 1.2 4.4C-13.8 10.5-7.4 7-.3 6.6c-.1.6-.2 1.3-.2 2 0 4.8 3.9 8.6 8.6 8.6 2.5 0 4.7-1 6.3-2.7 2 .4 3.8 1.1 5.5 2.1-.6-2-2-3.7-3.8-4.8 1.7.2 3.4.7 5 1.3-1-1.7-2.5-3.3-4.2-4.5z"/></symbol><use xlink:href="#a" width="42.1" height="34.3" x="-21" y="-17.2" transform="matrix(1 0 0 -1 50.65 49.75)" overflow="visible"/></svg>